<?xml version="1.0" encoding="UTF-8" standalone="no"?>
<!-- Created with Inkscape (http://www.inkscape.org/) -->

<svg
   xmlns:dc="http://purl.org/dc/elements/1.1/"
   xmlns:cc="http://creativecommons.org/ns#"
   xmlns:rdf="http://www.w3.org/1999/02/22-rdf-syntax-ns#"
   xmlns:svg="http://www.w3.org/2000/svg"
   xmlns="http://www.w3.org/2000/svg"
   xmlns:sodipodi="http://sodipodi.sourceforge.net/DTD/sodipodi-0.dtd"
   xmlns:inkscape="http://www.inkscape.org/namespaces/inkscape"
   width="77.171173mm"
   height="136.97365mm"
   viewBox="0 0 77.171173 136.97365"
   version="1.1"
   id="svg6183"
   inkscape:version="0.92.0 r15299"
   sodipodi:docname="cuny graduate center.svg">
  <defs
     id="defs6177">
    <clipPath
       id="clipPath4907"
       clipPathUnits="userSpaceOnUse">
      <path
         inkscape:connector-curvature="0"
         id="path4905"
         d="M 347.051,81.478 H 562.969 V 466.916 H 347.051 Z" />
    </clipPath>
  </defs>
  <sodipodi:namedview
     id="base"
     pagecolor="#ffffff"
     bordercolor="#666666"
     borderopacity="1.0"
     inkscape:pageopacity="0.0"
     inkscape:pageshadow="2"
     inkscape:zoom="1.0371342"
     inkscape:cx="143.9458"
     inkscape:cy="256.95807"
     inkscape:document-units="mm"
     inkscape:current-layer="layer1"
     showgrid="false"
     fit-margin-top="0"
     fit-margin-left="0"
     fit-margin-right="0"
     fit-margin-bottom="0"
     inkscape:window-width="1280"
     inkscape:window-height="744"
     inkscape:window-x="-4"
     inkscape:window-y="-4"
     inkscape:window-maximized="1" />
  <metadata
     id="metadata6180">
    <rdf:RDF>
      <cc:Work
         rdf:about="">
        <dc:format>image/svg+xml</dc:format>
        <dc:type
           rdf:resource="http://purl.org/dc/dcmitype/StillImage" />
        <dc:title></dc:title>
      </cc:Work>
    </rdf:RDF>
  </metadata>
  <g
     inkscape:label="Layer 1"
     inkscape:groupmode="layer"
     id="layer1"
     transform="translate(25.612443,-79.846508)">
    <g
       id="g6571"
       transform="translate(0.49999855,-0.50000596)">
      <path
         d="m -25.191649,175.92325 h 2.849033 v 3.98886 h 14.2934972 v 3.58563 H -22.342616 v 3.98886 h -2.849033 z"
         style="fill:#1e59ae;fill-opacity:1;fill-rule:nonzero;stroke:none;stroke-width:0.35277778"
         id="path4891"
         inkscape:connector-curvature="0" />
      <path
         d="m -18.329945,166.45093 h -6.86188 v -3.58563 h 17.1425298 v 3.58563 h -7.6450468 v 4.10704 h 7.6450468 v 3.58563 H -25.191825 v -3.58563 h 6.86188 z"
         style="fill:#1e59ae;fill-opacity:1;fill-rule:nonzero;stroke:none;stroke-width:0.35277778"
         id="path4895"
         inkscape:connector-curvature="0" />
      <path
         d="M -8.0491552,159.19409 H -25.191685 v -9.35461 h 2.635602 v 5.76933 h 4.226278 v -5.31813 h 2.635603 v 5.31813 h 5.009797 v -5.95948 h 2.6352498 z"
         style="fill:#1e59ae;fill-opacity:1;fill-rule:nonzero;stroke:none;stroke-width:0.35277778"
         id="path4899"
         inkscape:connector-curvature="0" />
      <path
         d="m 2.2385503,178.29816 c -1.59067496,-0.0243 -2.99190827,0.23707 -2.99190827,2.13642 0,2.23238 3.01554437,2.23238 6.33976927,2.23238 5.3661027,0 6.3157807,-0.52282 6.3157807,-2.56469 0,-0.59338 -0.142875,-1.23473 -0.332317,-1.78047 H 7.7708113 v 1.94662 H 5.1352086 v -5.5319 h 8.6896224 c 0.190147,0.97366 0.570088,3.41877 0.570088,4.84328 0,6.03109 -2.492727,6.71971 -8.9986549,6.71971 -4.3211749,0 -8.7136109,-0.21378 -8.7136109,-6.07836 0,-3.51366 1.9709694,-5.69842 5.5558971,-5.48463 z"
         style="fill:#1e59ae;fill-opacity:1;fill-rule:nonzero;stroke:none;stroke-width:0.35277778"
         id="path4911"
         inkscape:connector-curvature="0" />
      <path
         d="m 4.3753253,168.11312 v -1.59067 c 0,-1.42487 -1.4241639,-1.82845 -2.5167166,-1.82845 -1.63829998,0 -2.25566107,0.68862 -2.25566107,1.82845 v 1.59067 z m 9.7349027,0 v 3.58528 H -3.0323023 v -6.62446 c 0,-2.44581 1.5670388,-4.01249 4.4873332,-4.01249 2.1847527,0 3.8226999,0.85478 4.2026416,3.18135 h 0.047625 c 0.094544,-0.78352 0.2846917,-3.11009 3.3707916,-3.11009 1.0925529,0 4.3215279,-0.0713 5.0341389,-0.40358 v 3.51367 c -1.045281,0.47483 -2.208036,0.37994 -3.323872,0.37994 -2.0422308,0 -3.775428,-0.19015 -3.775428,2.56399 v 0.92639 z"
         style="fill:#1e59ae;fill-opacity:1;fill-rule:nonzero;stroke:none;stroke-width:0.35277778"
         id="path4915"
         inkscape:connector-curvature="0" />
      <path
         d="m 0.26775729,152.57516 v 0.0476 l 7.40833321,1.6383 v -3.41912 z m 13.84264671,6.90951 -17.1428827,-4.74875 v -4.7251 l 17.1428827,-4.65385 v 3.77508 l -3.799064,0.95003 v 4.89126 l 3.799064,0.97332 z"
         style="fill:#1e59ae;fill-opacity:1;fill-rule:nonzero;stroke:none;stroke-width:0.35277778"
         id="path4919"
         inkscape:connector-curvature="0" />
      <path
         d="m 11.474801,140.01599 v -1.7332 c 0,-2.1844 -1.6383,-2.61196 -5.9358388,-2.61196 -3.1580666,0 -5.93583872,0 -5.93583872,2.49308 v 1.85208 z m -14.507633,3.58528 v -5.98346 c 0,-4.70112 3.13478325,-5.57989 8.4765442,-5.57989 2.63525,0 8.6663388,-0.40358 8.6663388,5.72276 v 5.84059 z"
         style="fill:#1e59ae;fill-opacity:1;fill-rule:nonzero;stroke:none;stroke-width:0.35277778"
         id="path4923"
         inkscape:connector-curvature="0" />
      <path
         d="M -3.032514,117.57936 H 9.124208 c 2.564342,0 5.270853,1.44851 5.270853,5.81695 0,3.94159 -2.042231,5.8413 -5.270853,5.8413 H -3.032514 v -3.58564 H 8.8867885 c 2.1124335,0 2.9439305,-0.90205 2.9439305,-2.20768 0,-1.56739 -1.044575,-2.27965 -2.9439305,-2.27965 H -3.032514 Z"
         style="fill:#1e59ae;fill-opacity:1;fill-rule:nonzero;stroke:none;stroke-width:0.35277778"
         id="path4927"
         inkscape:connector-curvature="0" />
      <path
         d="m 0.26775729,109.55233 v 0.0476 l 7.40833321,1.63795 v -3.41877 z m 13.84264671,6.90915 -17.1428827,-4.74839 v -4.7251 l 17.1428827,-4.65385 v 3.77508 l -3.799064,0.95003 v 4.89126 l 3.799064,0.97332 z"
         style="fill:#1e59ae;fill-opacity:1;fill-rule:nonzero;stroke:none;stroke-width:0.35277778"
         id="path4931"
         inkscape:connector-curvature="0" />
      <path
         d="m -3.032514,92.052749 h 2.84938605 v 3.988858 H 14.110369 V 99.62724 H -0.18312795 v 3.98851 H -3.032514 Z"
         style="fill:#1e59ae;fill-opacity:1;fill-rule:nonzero;stroke:none;stroke-width:0.35277778"
         id="path4935"
         inkscape:connector-curvature="0" />
      <path
         d="M 14.110122,90.391271 H -3.032761 v -9.354608 h 2.63595554 v 5.76968 H 3.8291194 v -5.318477 h 2.6356028 v 5.318477 h 5.0101498 v -5.959827 h 2.63525 z"
         style="fill:#1e59ae;fill-opacity:1;fill-rule:nonzero;stroke:none;stroke-width:0.35277778"
         id="path4939"
         inkscape:connector-curvature="0" />
      <path
         d="m 27.697958,186.29938 c -4.534605,0 -8.856133,0 -8.856133,-5.9122 0,-3.65619 2.018594,-5.12798 5.698772,-4.98581 v 3.51437 c -2.280003,0 -3.134783,0.40287 -3.134783,1.47144 0,2.01824 1.900414,2.27965 6.292144,2.27965 4.392789,0 6.292144,-0.26141 6.292144,-2.27965 0,-1.66229 -2.13748,-1.59032 -3.490383,-1.6383 v -3.53731 c 4.582583,0 6.054725,1.82775 6.054725,5.17561 0,5.9122 -4.369153,5.9122 -8.856486,5.9122"
         style="fill:#1e59ae;fill-opacity:1;fill-rule:nonzero;stroke:none;stroke-width:0.35277778"
         id="path4943"
         inkscape:connector-curvature="0" />
      <path
         d="M 36.269399,172.93266 H 19.126516 v -9.35496 h 2.63525 v 5.76968 h 4.22663 v -5.31848 h 2.635603 v 5.31848 h 5.01015 v -5.95983 h 2.63525 z"
         style="fill:#1e59ae;fill-opacity:1;fill-rule:nonzero;stroke:none;stroke-width:0.35277778"
         id="path4947"
         inkscape:connector-curvature="0" />
      <path
         d="M 36.269399,161.03784 H 19.126516 v -4.84364 l 11.871678,-4.55859 v -0.0476 H 19.126516 v -3.34786 h 17.142883 v 4.72511 l -12.536664,4.67712 v 0.0476 h 12.536664 z"
         style="fill:#1e59ae;fill-opacity:1;fill-rule:nonzero;stroke:none;stroke-width:0.35277778"
         id="path4951"
         inkscape:connector-curvature="0" />
      <path
         d="m 19.126798,135.01621 h 2.849033 v 3.98886 h 14.29385 v 3.58563 h -14.29385 v 3.98851 h -2.849033 z"
         style="fill:#1e59ae;fill-opacity:1;fill-rule:nonzero;stroke:none;stroke-width:0.35277778"
         id="path4955"
         inkscape:connector-curvature="0" />
      <path
         d="M 36.269399,133.35474 H 19.126516 v -9.35461 h 2.63525 v 5.76933 h 4.22663 v -5.31848 h 2.635603 v 5.31848 h 5.01015 v -5.95948 h 2.63525 z"
         style="fill:#1e59ae;fill-opacity:1;fill-rule:nonzero;stroke:none;stroke-width:0.35277778"
         id="path4959"
         inkscape:connector-curvature="0" />
      <path
         d="m 26.534426,117.96985 v -1.59067 c 0,-1.42487 -1.424164,-1.82845 -2.516717,-1.82845 -1.6383,0 -2.255661,0.68862 -2.255661,1.82845 v 1.59067 z m 9.734903,0 v 3.58528 H 19.126798 v -6.62411 c 0,-2.44581 1.567039,-4.01284 4.487686,-4.01284 2.184048,0 3.8227,0.85478 4.202289,3.1817 h 0.04763 c 0.09419,-0.78352 0.285045,-3.11044 3.371497,-3.11044 1.0922,0 4.321175,-0.0713 5.033434,-0.40358 v 3.51402 c -1.045281,0.47448 -2.208389,0.37994 -3.324225,0.37994 -2.041878,0 -3.775075,-0.19015 -3.775075,2.56364 v 0.92639 z"
         style="fill:#1e59ae;fill-opacity:1;fill-rule:nonzero;stroke:none;stroke-width:0.35277778"
         id="path4963"
         inkscape:connector-curvature="0" />
      <path
         d="m -25.612443,198.95859 c 0,-2.29729 0.02364,-4.41819 2.568575,-4.41819 2.061633,0 2.097264,1.69651 2.097264,2.46239 h -0.754239 c 0,-0.94262 -0.259292,-1.82598 -1.343025,-1.82598 -1.7907,0 -1.814689,1.51942 -1.814689,3.78178 0,2.26236 0.02399,3.78213 1.814689,3.78213 0.9779,0 1.343025,-0.87171 1.354667,-1.96744 h 0.801158 c 0,0.61277 -0.141111,2.6042 -2.155825,2.6042 -2.544939,0 -2.568575,-2.12125 -2.568575,-4.41889"
         style="fill:#1e59ae;fill-opacity:1;fill-rule:nonzero;stroke:none;stroke-width:0.35277778"
         id="path4967"
         inkscape:connector-curvature="0" />
      <path
         inkscape:connector-curvature="0"
         id="path4969"
         style="fill:#1e59ae;fill-opacity:1;fill-rule:nonzero;stroke:none;stroke-width:0.35277778"
         d="m -18.706677,203.21193 h -0.753886 v -8.50618 h 0.753886 z" />
      <path
         d="m -15.666685,195.34188 h -2.073628 v -0.63606 h 4.901142 v 0.63606 h -2.073628 v 7.87012 h -0.753886 z"
         style="fill:#1e59ae;fill-opacity:1;fill-rule:nonzero;stroke:none;stroke-width:0.35277778"
         id="path4973"
         inkscape:connector-curvature="0" />
      <path
         d="m -10.034729,199.67731 -2.403122,-4.9717 h 0.84843 l 1.9438059,4.22946 2.0383499,-4.22946 h 0.7538861 l -2.4274638,4.9717 v 3.53483 h -0.7538861 z"
         style="fill:#1e59ae;fill-opacity:1;fill-rule:nonzero;stroke:none;stroke-width:0.35277778"
         id="path4977"
         inkscape:connector-curvature="0" />
      <path
         d="m -2.5098032,200.05468 c 0,1.10737 0,2.6864 1.73213885,2.6864 1.7314333,0 1.7314333,-1.57903 1.7314333,-2.6864 v -5.34882 H 1.7080078 v 5.90198 c 0,2.1918 -1.15464162,2.7693 -2.48567215,2.7693 -1.33208885,0 -2.48602495,-0.5775 -2.48602495,-2.7693 v -5.90198 h 0.7538861 z"
         style="fill:#1e59ae;fill-opacity:1;fill-rule:nonzero;stroke:none;stroke-width:0.35277778"
         id="path4981"
         inkscape:connector-curvature="0" />
      <path
         d="m 3.8480989,203.21197 v -8.50618 h 1.1546416 l 3.4515777,7.46901 0.024342,-0.0233 v -7.44573 H 9.232546 v 8.50618 h -1.143 l -3.4639249,-7.55262 -0.023636,0.0243 v 7.52828 z"
         style="fill:#1e59ae;fill-opacity:1;fill-rule:nonzero;stroke:none;stroke-width:0.35277778"
         id="path4985"
         inkscape:connector-curvature="0" />
      <path
         inkscape:connector-curvature="0"
         id="path4987"
         style="fill:#1e59ae;fill-opacity:1;fill-rule:nonzero;stroke:none;stroke-width:0.35277778"
         d="m 12.29755,203.21193 h -0.753886 v -8.50618 h 0.753886 z" />
      <path
         d="m 18.543339,194.70561 h 0.730603 l -2.356203,8.50618 H 15.97547 l -2.36855,-8.50618 h 0.801511 l 2.014008,7.61118 h 0.02399 z"
         style="fill:#1e59ae;fill-opacity:1;fill-rule:nonzero;stroke:none;stroke-width:0.35277778"
         id="path4991"
         inkscape:connector-curvature="0" />
      <path
         d="m 24.401567,194.70561 v 0.63606 H 21.30312 v 3.18064 h 2.957336 v 0.63606 H 21.30312 v 3.41736 h 3.18135 v 0.63606 h -3.935236 v -8.50618 z"
         style="fill:#1e59ae;fill-opacity:1;fill-rule:nonzero;stroke:none;stroke-width:0.35277778"
         id="path4995"
         inkscape:connector-curvature="0" />
      <path
         d="m 26.689189,198.45201 h 1.224844 c 1.131359,0 1.661231,-0.29422 1.661231,-1.71979 0,-1.16593 -0.459669,-1.3903 -1.343378,-1.3903 h -1.542697 z m 0,0.63606 v 4.12397 h -0.754592 v -8.50653 h 2.344561 c 1.637595,0 2.049992,0.54187 2.049992,2.03835 0,1.06045 -0.177094,1.76706 -1.319389,2.02636 v 0.0233 c 1.18992,0.24765 1.260475,0.38911 1.260475,3.42865 0,0.3302 0.05891,0.65969 0.0829,0.98989 h -0.718608 c -0.07091,-0.24765 -0.105834,-1.66158 -0.117828,-2.1209 -0.01199,-0.36512 0.235303,-2.00307 -1.402292,-2.00307 z"
         style="fill:#1e59ae;fill-opacity:1;fill-rule:nonzero;stroke:none;stroke-width:0.35277778"
         id="path4999"
         inkscape:connector-curvature="0" />
      <path
         d="m 35.479918,196.86175 c -0.02434,-1.04881 -0.283281,-1.68522 -1.437922,-1.68522 -0.918986,0 -1.496131,0.31821 -1.496131,1.3201 0,1.26047 0.636411,1.2961 1.60267,1.99072 1.048102,0.75424 2.120194,0.9779 2.120194,2.62784 0,1.51942 -0.777875,2.26201 -2.262011,2.26201 -1.66123,0 -2.403475,-0.8957 -2.332567,-2.55728 h 0.777523 c 0,0.94262 0.07091,1.92087 1.590322,1.92087 0.989894,0 1.472847,-0.53058 1.472847,-1.50777 0,-1.155 -0.765528,-1.4852 -1.991431,-2.23873 -1.648883,-1.01353 -1.719791,-1.52012 -1.731433,-2.36855 -0.01199,-1.47249 0.918634,-2.08527 2.308931,-2.08527 1.767416,0 2.144536,1.09573 2.144536,2.32128 z"
         style="fill:#1e59ae;fill-opacity:1;fill-rule:nonzero;stroke:none;stroke-width:0.35277778"
         id="path5003"
         inkscape:connector-curvature="0" />
      <path
         inkscape:connector-curvature="0"
         id="path5005"
         style="fill:#1e59ae;fill-opacity:1;fill-rule:nonzero;stroke:none;stroke-width:0.35277778"
         d="m 38.60313,203.21193 h -0.753886 v -8.50618 h 0.753886 z" />
      <path
         d="m 41.746239,195.34188 h -2.073275 v -0.63606 h 4.900789 v 0.63606 h -2.073628 v 7.87012 h -0.753886 z"
         style="fill:#1e59ae;fill-opacity:1;fill-rule:nonzero;stroke:none;stroke-width:0.35277778"
         id="path5009"
         inkscape:connector-curvature="0" />
      <path
         d="m 47.377383,199.67731 -2.403475,-4.9717 h 0.848431 l 1.943805,4.22946 2.037997,-4.22946 h 0.754592 l -2.427464,4.9717 v 3.53483 h -0.753886 z"
         style="fill:#1e59ae;fill-opacity:1;fill-rule:nonzero;stroke:none;stroke-width:0.35277778"
         id="path5013"
         inkscape:connector-curvature="0" />
      <path
         d="m -22.926534,216.1841 c 1.7907,0 1.813983,-1.51977 1.813983,-3.78178 0,-2.26236 -0.02328,-3.78248 -1.813983,-3.78248 -1.7907,0 -1.814689,1.52012 -1.814689,3.78248 0,2.26201 0.02399,3.78178 1.814689,3.78178 m 0,-8.20067 c 2.544586,0 2.568222,2.1209 2.568222,4.41889 0,2.29729 -0.02364,4.41784 -2.568222,4.41784 -2.544586,0 -2.568575,-2.12055 -2.568575,-4.41784 0,-2.29799 0.02399,-4.41889 2.568575,-4.41889"
         style="fill:#1e59ae;fill-opacity:1;fill-rule:nonzero;stroke:none;stroke-width:0.35277778"
         id="path5017"
         inkscape:connector-curvature="0" />
      <path
         d="m -18.848353,208.14877 h 3.593394 v 0.63606 h -2.839508 v 3.181 h 2.639131 v 0.63605 h -2.639131 v 4.05307 h -0.753886 z"
         style="fill:#1e59ae;fill-opacity:1;fill-rule:nonzero;stroke:none;stroke-width:0.35277778"
         id="path5021"
         inkscape:connector-curvature="0" />
      <path
         d="m -11.542184,216.65509 v -8.50618 h 1.154642 l 3.4515773,7.46937 0.023989,-0.0236 v -7.44573 h 0.7538861 v 8.50618 h -1.1426472 l -3.4639252,-7.55262 -0.02364,0.0243 v 7.52828 z"
         style="fill:#1e59ae;fill-opacity:1;fill-rule:nonzero;stroke:none;stroke-width:0.35277778"
         id="path5025"
         inkscape:connector-curvature="0" />
      <path
         d="m -0.27710798,208.14877 v 0.63606 H -3.3759079 v 3.181 h 2.95733603 v 0.63605 H -3.3759079 v 3.41701 h 3.18099714 v 0.63606 H -4.129794 v -8.50618 z"
         style="fill:#1e59ae;fill-opacity:1;fill-rule:nonzero;stroke:none;stroke-width:0.35277778"
         id="path5029"
         inkscape:connector-curvature="0" />
      <path
         d="m 4.9838669,208.14877 h 1.012825 l 1.7085027,7.45807 h 0.023636 l 1.8139833,-7.45807 h 0.7425971 l -2.1089054,8.50618 H 7.1869641 L 5.4784613,209.09139 H 5.455178 l -1.7554222,7.56356 H 2.7567808 L 0.70714199,208.14877 H 1.5079475 l 1.7201444,7.51664 h 0.023636 z"
         style="fill:#1e59ae;fill-opacity:1;fill-rule:nonzero;stroke:none;stroke-width:0.35277778"
         id="path5033"
         inkscape:connector-curvature="0" />
      <path
         d="m 15.456463,213.12043 -2.403475,-4.9717 h 0.848431 l 1.943805,4.22946 2.038703,-4.22946 h 0.753533 l -2.427464,4.9717 v 3.53483 h -0.753533 z"
         style="fill:#1e59ae;fill-opacity:1;fill-rule:nonzero;stroke:none;stroke-width:0.35277778"
         id="path5037"
         inkscape:connector-curvature="0" />
      <path
         d="m 21.920622,216.1841 c 1.7907,0 1.813983,-1.51977 1.813983,-3.78178 0,-2.26236 -0.02328,-3.78248 -1.813983,-3.78248 -1.791053,0 -1.814689,1.52012 -1.814689,3.78248 0,2.26201 0.02364,3.78178 1.814689,3.78178 m 0,-8.20067 c 2.544586,0 2.567869,2.1209 2.567869,4.41889 0,2.29729 -0.02328,4.41784 -2.567869,4.41784 -2.545292,0 -2.568928,-2.12055 -2.568928,-4.41784 0,-2.29799 0.02364,-4.41889 2.568928,-4.41889"
         style="fill:#1e59ae;fill-opacity:1;fill-rule:nonzero;stroke:none;stroke-width:0.35277778"
         id="path5041"
         inkscape:connector-curvature="0" />
      <path
         d="m 26.89941,211.89552 h 1.224844 c 1.131359,0 1.661231,-0.29457 1.661231,-1.72014 0,-1.16593 -0.459669,-1.3903 -1.342672,-1.3903 H 26.89941 Z m 0,0.63606 v 4.12326 h -0.753886 v -8.50617 h 2.344208 c 1.637947,0 2.049992,0.54186 2.049992,2.03835 0,1.06045 -0.176742,1.76706 -1.319389,2.02635 v 0.0236 c 1.189567,0.2473 1.260475,0.38911 1.260475,3.42829 0,0.33056 0.05891,0.66005 0.0829,0.98954 h -0.718609 c -0.07091,-0.24694 -0.106186,-1.66087 -0.11818,-2.12054 -0.01164,-0.36548 0.236008,-2.00272 -1.401586,-2.00272 z"
         style="fill:#1e59ae;fill-opacity:1;fill-rule:nonzero;stroke:none;stroke-width:0.35277778"
         id="path5045"
         inkscape:connector-curvature="0" />
      <path
         d="m 32.62651,216.65509 v -8.50618 h 0.754592 v 3.89996 h 0.02328 l 3.016603,-3.89996 h 0.906286 l -3.180645,3.97052 3.275542,4.53566 h -0.942622 l -3.075164,-4.35892 h -0.02328 v 4.35892 z"
         style="fill:#1e59ae;fill-opacity:1;fill-rule:nonzero;stroke:none;stroke-width:0.35277778"
         id="path5049"
         inkscape:connector-curvature="0" />
    </g>
  </g>
</svg>
