<svg xmlns="http://www.w3.org/2000/svg" width="250" height="250">

  <g id="g1" transform="matrix(2.05223 0 0 2.05223 -1083.223 -239.725)" stroke-linecap="square" stroke-linejoin="round" stroke-miterlimit="100000">
    <ellipse id="anthers" cx="594.96" cy="139.226" rx="5.135" ry="5.706" opacity=".65" fill="#edd646"/>

    <path id="style" d="M577.502 154.585s.526 2.458.337 3.673c-.108.7-.223 1.589-.827 1.96-.977.598-2.374.203-3.428-.246-1.011-.43-1.868-1.272-2.45-2.204-.629-1.008-.937-2.24-.979-3.428-.056-1.584.425-3.168.98-4.653.588-1.574 1.25-3.23 2.449-4.408.99-.972 2.387-1.436 3.673-1.959 1.384-.562 2.84-.955 4.305-1.245 2.129-.422 4.3-.693 6.47-.714 1.803-.017 3.684-.103 5.387.49 2.395.833 4.809 2.163 6.367 4.163 1.539 1.975 1.815 4.68 2.449 7.102.924 3.531 1.631 7.139 1.959 10.774.271 3.008-.105 6.043 0 9.061.327 9.404 1.53 18.762 1.959 28.162.342 7.503.252 15.021.49 22.529" opacity=".761" fill="none" stroke="#18c2b7" stroke-width="1.487" stroke-linecap="round" stroke-linejoin="miter" stroke-miterlimit="4"/>

    <g id="g2" transform="matrix(1.75008 0 0 1.75008 -99.355 -190.873)" opacity=".761">
      <ellipse id="pollen" cx="386.682" cy="195.865" rx="2.458" ry="2.329" opacity=".754" fill="#ff8080"/>
      <path d="M381.336 197.09s.092 1.424.408 2.041c.512 1.002 1.266 2.025 2.298 2.475.648.283 1.444.205 2.121 0 .61-.185 1.29-.499 1.591-1.06.334-.624 0-1.415 0-2.122 0-.59.21-1.217 0-1.768-.162-.428-.455-.996-.912-1.028-.533-.037-1.05.532-1.218 1.039-.17.513.302 1.043.362 1.58.055.478.352 1.114 0 1.442-.282.263-.842.187-1.156-.081-.736-.633-1.084-.86-1.264-1.66-.212-.942-.03-1.86.3-2.706.397-1.021 1.042-2.029 1.944-2.652.905-.625 2.095-1.057 3.182-.883 1.049.167 1.635 1.46 2.651 1.767.564.171 1.224.226 1.768 0 .539-.223.654-1.228 1.237-1.237 1.376-.02 2.253 1.677 3.006 2.828.48.733.763 1.608.884 2.475.122.878.47 2.047-.177 2.652-.301.282-.895.229-1.238 0-.617-.413-.648-1.144-.853-2.059-.187-.835.297-1.48-.06-2.084-.411-.692-.907-.48-1.217-.87a4.123 4.123 0 0 1-.875-2.119c-.018-.19.114-.562.114-.562m-12.891 4.65c-.115-1.094.74-2.387.933-3.32.31-1.493 1.139-2.347 2.121-3.14.643-.52 1.517-.66 2.299-.926 1.448-.493 3.11-.445 4.419-1.237 1.177-.713 1.676-2.255 2.828-3.006.89-.58 1.95-1.183 3.006-1.06.974.113 1.784.894 2.474 1.59.933.94 1.754 2.087 2.122 3.36.295 1.018-.181 2.136 0 3.181.15.864.734 1.612.884 2.475.16.93-.62 2.118 0 2.829.86.985 2.665.067 3.889.53.993.376 1.88 1.038 2.651 1.768.642.607 1.287 1.291 1.591 2.121.346.942.148 2.002.177 3.005.03 1.002.268 2.04 0 3.006-.458 1.655-1.59 3.069-2.651 4.419-.644.819-1.546 1.405-2.225 2.195-.391.454-.626.37-1.059 1.454-.678 1.699-.11 5.258-.152 7.655-.116 6.559.59 13.747.59 13.747m-4.199-1.748c-.203-4.559-.467-6.927-.4-10.74-.266-2.872.613-5.785-.838-6.527-.555-.283 5.64-3.256 5.371-3.21-.978.163-8.22 4.41-9.286 4.599-2.09.368-4.294.465-6.364 0-1.209-.272-2.507-.692-3.359-1.591-.963-1.017-1.585-2.489-1.59-3.89-.007-1.586 1.467-2.86 1.767-4.419.1-.52.49-1.388 0-1.59-.616-.256-1.008.885-1.414 1.413-.788 1.026-.865 2.647-1.945 3.36-1.239.816-2.972.858-4.42.53-1.498-.341-2.98-1.236-3.888-2.475-1.082-1.476-1.177-3.49-1.414-5.304-.2-1.519-.926-3.375 0-4.596.924-1.219 2.903-1.03 4.419-1.237.817-.113 2.206.78 2.475 0 .633-1.838-4.46-1.65-4.596-3.59-.169-2.407 2.89-4.503 5.038-5.502.236-.11 2.397.801 2.397.801" fill="none" stroke="#000" stroke-width=".507" stroke-linecap="butt" stroke-linejoin="miter" stroke-miterlimit="4"/>
      <path d="M403.93 212.478s-.884.11-1.327.088c-.642-.031-1.325-.035-1.903-.317-.879-.428-1.584-1.193-2.162-1.98-.963-1.313-.673-.959-1.238-2.74-.313-.987-.248-1.188-.265-3.095-.012-1.299-1.36-3.19-.265-3.889 1.39-.886 3.117 1.272 4.33 2.387.861.79 1.047 2.17 1.945 2.917.69.574 1.618.794 2.475 1.06.574.179 1.208.137 1.768.354.32.124.884.53.884.53" fill="none" stroke="#000" stroke-width=".3" stroke-linecap="butt" stroke-linejoin="miter" stroke-miterlimit="4"/>
      <path d="M396.813 199.795s-3.312 3.95-4.463 6.23c-.474.94-.55 2.041-.972 3.006-.43.984-1.304 2.488-1.907 3.492-.372.619.047 2.11.047 2.11" fill="none" stroke="#000" stroke-width=".3" stroke-linecap="butt" stroke-linejoin="miter" stroke-miterlimit="4"/>
      <path d="M396.787 200.26s-5.04.214-7.442.904c-1.533.44-2.963 1.214-4.33 2.033-1.482.887-3.035 1.78-4.155 3.094-1.243 1.458-2.992.498-2.992.498" fill="none" stroke="#000" stroke-width=".3" stroke-linecap="butt" stroke-linejoin="miter" stroke-miterlimit="4"/>
      <path d="M396.791 200.271s-3.865-.886-5.501-1.935c-.276-.177-.684-.706-.684-.706" fill="none" stroke="#000" stroke-width=".3" stroke-linecap="butt" stroke-linejoin="miter" stroke-miterlimit="4"/>
    </g>
  </g>
</svg>
